<?xml version="1.0" standalone="no"?>
<!DOCTYPE svg PUBLIC "-//W3C//DTD SVG 20010904//EN"
 "http://www.w3.org/TR/2001/REC-SVG-20010904/DTD/svg10.dtd">
<svg version="1.0" xmlns="http://www.w3.org/2000/svg"
 width="2000.000000pt" height="2000.000000pt" viewBox="0 0 2000.000000 2000.000000"
 preserveAspectRatio="xMidYMid meet">

<g transform="translate(0.000000,2000.000000) scale(0.100000,-0.100000)"
fill="#000000" stroke="none">
<path d="M180 14515 l0 -115 45 0 45 0 0 115 0 115 -45 0 -45 0 0 -115z"/>
<path d="M180 13475 l0 -115 45 0 45 0 0 115 0 115 -45 0 -45 0 0 -115z"/>
<path d="M180 12435 l0 -115 45 0 45 0 0 115 0 115 -45 0 -45 0 0 -115z"/>
<path d="M180 11395 l0 -115 45 0 45 0 0 115 0 115 -45 0 -45 0 0 -115z"/>
<path d="M180 10355 l0 -115 45 0 45 0 0 115 0 115 -45 0 -45 0 0 -115z"/>
<path d="M180 9315 l0 -115 45 0 45 0 0 115 0 115 -45 0 -45 0 0 -115z"/>
<path d="M180 8275 l0 -115 45 0 45 0 0 115 0 115 -45 0 -45 0 0 -115z"/>
<path d="M180 7235 l0 -115 45 0 45 0 0 115 0 115 -45 0 -45 0 0 -115z"/>
<path d="M180 6195 l0 -115 45 0 45 0 0 115 0 115 -45 0 -45 0 0 -115z"/>
<path d="M180 5155 l0 -115 45 0 45 0 0 115 0 115 -45 0 -45 0 0 -115z"/>
<path d="M180 4115 l0 -115 45 0 45 0 0 115 0 115 -45 0 -45 0 0 -115z"/>
<path d="M180 3075 l0 -115 45 0 45 0 0 115 0 115 -45 0 -45 0 0 -115z"/>
<path d="M180 2035 l0 -115 45 0 45 0 0 115 0 115 -45 0 -45 0 0 -115z"/>
<path d="M424 1256 c-3 -8 -4 -29 -2 -48 l3 -33 112 -3 112 -3 7 26 c3 14 3
36 0 50 -6 25 -7 25 -117 25 -85 0 -111 -3 -115 -14z"/>
<path d="M1464 1256 c-3 -8 -4 -29 -2 -48 l3 -33 112 -3 112 -3 7 26 c3 14 3
36 0 50 -6 25 -7 25 -117 25 -85 0 -111 -3 -115 -14z"/>
<path d="M2504 1256 c-3 -8 -4 -29 -2 -48 l3 -33 112 -3 112 -3 7 26 c3 14 3
36 0 50 -6 25 -7 25 -117 25 -85 0 -111 -3 -115 -14z"/>
<path d="M3544 1256 c-3 -8 -4 -29 -2 -48 l3 -33 112 -3 112 -3 7 26 c3 14 3
36 0 50 -6 25 -7 25 -117 25 -85 0 -111 -3 -115 -14z"/>
<path d="M4584 1256 c-3 -8 -4 -29 -2 -48 l3 -33 112 -3 112 -3 7 26 c3 14 3
36 0 50 -6 25 -7 25 -117 25 -85 0 -111 -3 -115 -14z"/>
<path d="M5624 1256 c-3 -8 -4 -29 -2 -48 l3 -33 112 -3 112 -3 7 26 c3 14 3
36 0 50 -6 25 -7 25 -117 25 -85 0 -111 -3 -115 -14z"/>
<path d="M6664 1256 c-3 -8 -4 -29 -2 -48 l3 -33 112 -3 112 -3 7 26 c3 14 3
36 0 50 -6 25 -7 25 -117 25 -85 0 -111 -3 -115 -14z"/>
<path d="M7704 1256 c-3 -8 -4 -29 -2 -48 l3 -33 112 -3 112 -3 7 26 c3 14 3
36 0 50 -6 25 -7 25 -117 25 -85 0 -111 -3 -115 -14z"/>
<path d="M8744 1256 c-3 -8 -4 -29 -2 -48 l3 -33 112 -3 112 -3 7 26 c3 14 3
36 0 50 -6 25 -7 25 -117 25 -85 0 -111 -3 -115 -14z"/>
<path d="M9784 1256 c-3 -8 -4 -29 -2 -48 l3 -33 112 -3 112 -3 7 26 c3 14 3
36 0 50 -6 25 -7 25 -117 25 -85 0 -111 -3 -115 -14z"/>
<path d="M10824 1256 c-3 -8 -4 -29 -2 -48 l3 -33 112 -3 112 -3 7 26 c3 14 3
36 0 50 -6 25 -7 25 -117 25 -85 0 -111 -3 -115 -14z"/>
<path d="M11864 1256 c-3 -8 -4 -29 -2 -48 l3 -33 112 -3 112 -3 7 26 c3 14 3
36 0 50 -6 25 -7 25 -117 25 -85 0 -111 -3 -115 -14z"/>
<path d="M12904 1256 c-3 -8 -4 -29 -2 -48 l3 -33 112 -3 112 -3 7 26 c3 14 3
36 0 50 -6 25 -7 25 -117 25 -85 0 -111 -3 -115 -14z"/>
<path d="M13944 1256 c-3 -8 -4 -29 -2 -48 l3 -33 112 -3 112 -3 7 26 c3 14 3
36 0 50 -6 25 -7 25 -117 25 -85 0 -111 -3 -115 -14z"/>
<path d="M14984 1256 c-3 -8 -4 -29 -2 -48 l3 -33 112 -3 112 -3 7 26 c3 14 3
36 0 50 -6 25 -7 25 -117 25 -85 0 -111 -3 -115 -14z"/>
</g>
</svg>
