<?xml version="1.0" standalone="no"?>
<!DOCTYPE svg PUBLIC "-//W3C//DTD SVG 20010904//EN"
 "http://www.w3.org/TR/2001/REC-SVG-20010904/DTD/svg10.dtd">
<svg version="1.0" xmlns="http://www.w3.org/2000/svg"
 width="1000.000000pt" height="1000.000000pt" viewBox="0 0 1000.000000 1000.000000"
 preserveAspectRatio="xMidYMid meet">

<g transform="translate(0.000000,1000.000000) scale(0.100000,-0.100000)"
fill="#000000" stroke="none">
<path d="M4855 8744 c-58 -12 -152 -39 -170 -49 -185 -101 -229 -146 -320
-330 -93 -187 -83 -411 25 -596 71 -120 178 -218 296 -270 24 -11 44 -24 44
-28 0 -5 21 -11 48 -14 26 -3 81 -11 122 -17 82 -13 130 -7 250 32 277 90 478
384 455 661 -10 119 -23 157 -118 341 -55 105 -242 229 -397 262 -60 13 -189
17 -235 8z"/>
<path d="M2520 8260 c-502 -41 -1172 -271 -1580 -543 -94 -62 -305 -274 -387
-387 -183 -254 -339 -646 -387 -973 -21 -139 -21 -411 -1 -556 14 -95 76 -374
105 -466 5 -16 21 -72 36 -123 14 -52 47 -149 74 -215 26 -67 68 -185 94 -262
150 -446 375 -706 691 -797 115 -33 325 -33 439 1 370 108 720 389 1098 882
390 508 756 1249 903 1829 136 535 117 931 -59 1230 -75 128 -191 231 -339
300 -144 68 -216 82 -417 85 -96 2 -218 0 -270 -5z"/>
<path d="M6980 8251 c-332 -74 -560 -289 -648 -611 -36 -130 -45 -229 -39
-428 4 -143 11 -220 31 -327 140 -743 579 -1633 1121 -2270 492 -578 1012
-815 1435 -656 269 101 497 376 614 741 21 63 42 126 48 140 119 291 237 703
272 958 23 165 21 436 -4 586 -28 164 -68 315 -106 401 -7 17 -39 91 -71 165
-116 269 -272 487 -483 674 -212 188 -668 402 -1127 530 -300 83 -445 105
-743 111 -186 4 -226 3 -300 -14z"/>
<path d="M4875 7136 c-41 -18 -83 -69 -89 -109 -8 -52 -26 -845 -37 -1667 -12
-826 -6 -2792 11 -3320 5 -173 11 -460 14 -638 5 -371 7 -378 87 -421 36 -19
52 -23 84 -17 56 11 112 71 119 128 3 24 8 223 12 443 4 220 10 540 13 710 11
508 12 3083 1 3590 -5 259 -12 580 -15 715 -8 403 -14 494 -36 529 -19 31 -85
71 -116 71 -10 -1 -32 -7 -48 -14z"/>
<path d="M1680 2819 c-436 -77 -471 -696 -74 -1296 85 -128 321 -403 345 -403
6 0 47 -32 92 -71 166 -144 422 -296 643 -383 245 -95 548 -132 737 -90 226
51 370 188 396 378 51 369 -398 987 -1064 1465 -414 298 -814 447 -1075 400z"/>
<path d="M8047 2814 c-368 -66 -894 -391 -1316 -813 -286 -286 -493 -597 -552
-831 -32 -125 -25 -254 19 -342 121 -247 467 -331 907 -221 420 105 845 389
1160 777 248 304 385 638 385 933 0 124 -17 209 -59 291 -58 115 -144 177
-284 206 -91 19 -155 19 -260 0z"/>
</g>
</svg>
