<?xml version="1.0" standalone="no"?>
<!DOCTYPE svg PUBLIC "-//W3C//DTD SVG 20010904//EN"
 "http://www.w3.org/TR/2001/REC-SVG-20010904/DTD/svg10.dtd">
<svg version="1.0" xmlns="http://www.w3.org/2000/svg"
 width="1000.000000pt" height="1000.000000pt" viewBox="0 0 1000.000000 1000.000000"
 preserveAspectRatio="xMidYMid meet">

<g transform="translate(0.000000,1000.000000) scale(0.100000,-0.100000)"
fill="#000000" stroke="none">
<path d="M630 4555 l0 -4325 640 0 640 0 0 330 0 330 3090 0 3090 0 0 -330 0
-330 640 0 640 0 0 4325 0 4325 -640 0 -640 0 0 -550 0 -550 -3090 0 -3090 0
0 550 0 550 -640 0 -640 0 0 -4325z m1041 3846 l29 -29 0 -372 0 -372 -29 -29
-29 -29 -372 0 -372 0 -29 31 -29 31 0 365 0 365 34 34 34 34 367 0 367 0 29
-29z m7455 -5 l34 -34 0 -365 0 -365 -29 -31 -29 -31 -372 0 -372 0 -29 29
-29 29 0 372 0 372 29 29 29 29 367 0 367 0 34 -34z m-1036 -4061 l0 -2645
-3090 0 -3090 0 0 2645 0 2645 3090 0 3090 0 0 -2645z m-6429 2556 l29 -29 0
-372 0 -372 -29 -29 -29 -29 -372 0 -372 0 -29 31 -29 31 0 365 0 365 34 34
34 34 367 0 367 0 29 -29z m7475 -5 l34 -34 0 -365 0 -365 -29 -31 -29 -31
-372 0 -372 0 -29 29 -29 29 0 372 0 372 29 29 29 29 367 0 367 0 34 -34z
m-7485 -1445 l29 -29 0 -372 0 -372 -29 -29 -29 -29 -372 0 -372 0 -29 31 -29
31 0 365 0 365 34 34 34 34 367 0 367 0 29 -29z m7495 -5 l34 -34 0 -365 0
-365 -29 -31 -29 -31 -372 0 -372 0 -29 29 -29 29 0 372 0 372 29 29 29 29
367 0 367 0 34 -34z m-7505 -1405 l29 -29 0 -372 0 -372 -29 -29 -29 -29 -372
0 -372 0 -29 31 -29 31 0 365 0 365 34 34 34 34 367 0 367 0 29 -29z m7515 -5
l34 -34 0 -365 0 -365 -29 -31 -29 -31 -372 0 -372 0 -29 29 -29 29 0 372 0
372 29 29 29 29 367 0 367 0 34 -34z m-7515 -1275 l29 -29 0 -372 0 -372 -29
-29 -29 -29 -372 0 -372 0 -29 31 -29 31 0 365 0 365 34 34 34 34 367 0 367 0
29 -29z m7515 -5 l34 -34 0 -365 0 -365 -29 -31 -29 -31 -372 0 -372 0 -29 29
-29 29 0 372 0 372 29 29 29 29 367 0 367 0 34 -34z m-7515 -1305 l29 -29 0
-372 0 -372 -29 -29 -29 -29 -372 0 -372 0 -29 31 -29 31 0 365 0 365 34 34
34 34 367 0 367 0 29 -29z m7515 -5 l34 -34 0 -365 0 -365 -29 -31 -29 -31
-372 0 -372 0 -29 29 -29 29 0 372 0 372 29 29 29 29 367 0 367 0 34 -34z"/>
<path d="M3762 6106 c-43 -14 -102 -54 -135 -91 -10 -11 -33 -49 -50 -85 l-32
-65 -3 -1534 c-1 -1011 1 -1553 8 -1590 22 -118 96 -214 193 -248 75 -26 176
-22 252 8 33 14 285 162 560 331 447 273 1074 656 1785 1091 135 82 264 168
288 191 24 22 57 69 74 103 28 57 30 68 26 150 -4 104 -25 156 -90 222 -49 49
-82 69 -623 376 -220 125 -515 293 -655 373 -452 256 -699 397 -970 552 -384
219 -394 223 -498 227 -55 2 -103 -2 -130 -11z m336 -430 c120 -68 348 -198
507 -288 160 -91 405 -230 545 -310 140 -80 435 -248 655 -373 592 -336 596
-338 592 -349 -5 -14 -29 -30 -237 -156 -102 -62 -223 -136 -270 -165 -47 -29
-166 -102 -265 -162 -99 -61 -272 -167 -385 -236 -1165 -713 -1366 -834 -1372
-823 -9 13 -10 2931 -2 2964 4 12 8 22 11 22 3 0 102 -56 221 -124z"/>
</g>
</svg>
