<?xml version="1.0" standalone="no"?>
<!DOCTYPE svg PUBLIC "-//W3C//DTD SVG 20010904//EN"
 "http://www.w3.org/TR/2001/REC-SVG-20010904/DTD/svg10.dtd">
<svg version="1.0" xmlns="http://www.w3.org/2000/svg"
 width="1000.000000pt" height="1000.000000pt" viewBox="0 0 1000.000000 1000.000000"
 preserveAspectRatio="xMidYMid meet">

<g transform="translate(0.000000,1000.000000) scale(0.100000,-0.100000)"
fill="#000000" stroke="none">
<path d="M2164 8574 c-16 -8 -38 -28 -47 -43 -16 -27 -17 -266 -17 -3726 0
-3335 2 -3699 16 -3726 32 -63 -163 -59 2674 -59 2837 0 2642 -4 2674 59 14
27 16 390 16 3721 0 3341 -1 3695 -16 3725 -33 71 200 65 -2676 65 -2289 0
-2597 -2 -2624 -16z m5104 -3441 c-1 -1451 -4 -2592 -5 -2535 l-4 102 -1519 0
-1520 0 0 30 c0 86 53 387 91 514 l21 70 59 -67 c73 -81 130 -114 279 -162
180 -59 369 -60 488 -3 70 33 70 46 3 119 -51 56 -75 72 -187 127 -179 87
-288 114 -465 116 l-136 1 13 37 c71 204 250 588 335 722 l31 50 15 -30 c28
-55 85 -104 138 -119 106 -30 177 18 215 144 12 39 26 71 31 71 16 0 42 -51
79 -158 67 -196 129 -294 256 -411 93 -85 144 -93 152 -25 5 42 -13 94 -83
239 -35 72 -70 155 -78 185 -8 30 -18 63 -22 73 -7 16 -3 16 46 -3 29 -12 80
-36 114 -55 33 -18 87 -44 120 -58 96 -40 255 -77 255 -60 0 5 -47 36 -103 70
-128 77 -153 101 -76 74 30 -10 77 -29 104 -41 85 -38 185 -68 307 -95 136
-29 190 -32 208 -10 15 18 16 17 -58 70 -29 21 -50 41 -45 45 4 4 42 15 83 25
41 10 82 23 90 30 8 7 44 15 80 18 110 11 221 26 278 38 50 12 53 14 47 38 -4
14 -11 28 -16 29 -21 8 -6 21 34 29 26 6 42 14 42 23 0 15 -80 60 -195 110
l-55 24 45 5 c52 7 90 33 114 78 9 18 16 34 16 36 0 3 -19 7 -42 11 -35 6
-154 42 -238 73 -8 3 21 14 65 24 108 26 217 68 212 83 -5 17 -107 18 -237 3
-137 -17 -310 -21 -462 -11 -117 7 -120 16 -12 29 32 4 118 20 189 36 185 41
365 132 365 185 0 8 -13 23 -30 32 -16 9 -30 20 -30 24 0 3 15 24 34 47 107
128 96 168 -51 190 -85 13 -190 14 -253 1 -25 -4 -47 -6 -50 -4 -2 3 10 31 28
63 35 64 40 89 18 97 -15 6 -76 96 -76 112 0 5 -7 15 -15 22 -12 10 -28 10
-76 1 -34 -7 -64 -10 -67 -7 -3 4 4 34 16 69 35 97 30 123 -20 118 -9 -1 -22
7 -28 18 -14 28 -36 26 -95 -8 -56 -32 -249 -227 -383 -385 -13 -15 -25 -26
-28 -24 -2 3 16 45 40 94 82 169 133 343 121 416 -7 40 -40 74 -81 84 -14 4
-45 -4 -78 -19 -31 -14 -58 -22 -60 -18 -3 4 0 49 6 98 6 50 8 102 4 117 -6
24 -10 27 -35 21 -28 -6 -29 -4 -37 42 -12 63 -37 68 -93 18 -36 -32 -121
-153 -121 -171 0 -17 -53 -75 -61 -67 -5 5 -13 40 -19 78 -15 108 -28 145 -54
155 -13 5 -33 21 -46 37 -22 28 -22 28 -38 7 -10 -11 -24 -31 -33 -44 l-16
-25 -27 53 c-42 84 -70 80 -112 -15 -13 -29 -26 -53 -28 -53 -3 0 -30 25 -61
56 -54 54 -56 59 -62 120 -6 62 -22 92 -42 80 -27 -17 -69 -118 -86 -206 -24
-131 -30 -135 -89 -60 l-47 62 -26 -17 c-24 -16 -27 -16 -51 2 -14 11 -34 37
-44 59 -39 80 -43 88 -53 88 -16 1 -34 -46 -40 -105 -6 -56 -7 -60 -19 -121
-6 -25 -2 -69 12 -135 26 -121 32 -163 25 -163 -4 0 -21 11 -39 25 -18 14 -38
25 -44 25 -6 0 -20 19 -30 43 -18 38 -20 39 -20 15 0 -38 -16 -35 -24 3 -6 34
0 53 15 44 6 -4 6 3 0 17 -6 13 -24 69 -41 125 -54 181 -71 127 -21 -71 16
-63 32 -125 36 -136 14 -43 -15 -17 -60 55 -25 41 -51 77 -57 81 -7 4 -9 -16
-6 -62 2 -53 0 -68 -10 -66 -7 1 -40 5 -73 9 -49 5 -63 3 -79 -12 -20 -18 -21
-18 -55 15 -39 37 -42 33 -20 -29 13 -37 13 -42 -1 -48 -32 -12 -120 6 -177
36 -62 33 -77 33 -77 0 0 -52 80 -158 254 -336 71 -73 125 -133 119 -133 -5 0
-61 32 -124 71 -153 95 -271 159 -295 159 -30 -1 69 -86 142 -122 79 -38 143
-101 125 -122 -16 -19 13 -40 194 -141 77 -43 219 -126 315 -183 96 -57 202
-118 235 -134 33 -17 101 -59 150 -93 50 -35 112 -75 138 -90 43 -23 51 -25
81 -14 30 11 37 10 65 -10 65 -47 49 -53 -197 -71 -226 -17 -321 -56 -324
-133 -1 -30 5 -45 33 -73 64 -67 111 -87 205 -88 46 -1 84 -2 84 -4 0 -1 -36
-57 -80 -123 -141 -209 -281 -469 -380 -704 -19 -44 -35 -81 -36 -83 0 -1 -55
51 -120 116 -155 155 -301 250 -441 286 -79 21 -250 21 -327 1 -120 -32 -293
-121 -316 -165 -16 -29 11 -69 112 -166 130 -124 231 -196 388 -274 176 -88
295 -106 479 -71 62 12 115 20 118 18 2 -3 -17 -65 -42 -138 -48 -140 -114
-370 -123 -426 l-4 -33 -799 0 -799 0 -3 -272 c-1 -150 -3 990 -5 2535 l-2
2807 2480 0 2480 0 -2 -2637z m-3392 731 c10 -14 26 -34 34 -44 8 -10 26 -33
40 -51 14 -17 57 -68 95 -112 39 -44 95 -110 125 -146 58 -69 97 -112 155
-171 20 -19 35 -38 35 -42 0 -41 -158 102 -285 257 -134 164 -265 349 -265
375 0 12 34 -22 66 -66z m262 -100 c29 -47 51 -91 49 -97 -3 -11 -117 156
-117 173 0 25 20 3 68 -76z m1024 -133 c35 -44 78 -61 154 -61 72 0 70 1 167
-108 22 -24 37 -32 64 -32 l34 0 -22 -32 c-12 -18 -24 -34 -25 -36 -6 -9 -53
26 -115 84 -38 35 -76 65 -86 65 -10 1 -46 3 -81 4 -68 3 -92 16 -112 66 -14
32 -25 37 -34 14 -3 -8 -14 -15 -23 -15 -10 0 -28 -7 -40 -15 -14 -10 -32 -13
-48 -9 -15 4 -32 1 -41 -7 -9 -7 -37 -16 -62 -20 -26 -4 -58 -11 -73 -14 -20
-5 -27 -2 -36 18 -11 24 -11 24 35 20 41 -4 53 0 91 27 37 28 49 31 85 26 35
-5 48 -1 85 24 24 17 48 30 52 30 4 0 18 -13 31 -29z m-489 -102 c5 -4 23 -3
39 2 29 8 30 6 54 -47 13 -30 24 -61 24 -69 0 -25 -23 -29 -38 -7 -19 28 -58
29 -73 1 -20 -38 -1 -86 59 -152 31 -34 62 -63 69 -65 21 -5 50 -84 57 -153 6
-54 3 -69 -13 -96 -12 -18 -26 -30 -33 -27 -23 9 -116 156 -151 239 -50 115
-60 151 -61 219 -1 84 39 218 53 175 2 -8 8 -17 14 -20z m-375 -109 c22 -21
29 -40 14 -40 -9 0 -33 25 -46 48 -11 19 8 14 32 -8z m-205 -66 c62 -32 177
-106 177 -115 0 -5 7 -9 15 -9 8 0 15 -4 15 -10 0 -5 -3 -10 -6 -10 -5 0 -190
114 -239 147 -27 18 -1 16 38 -3z m1602 -30 c5 -39 11 -48 36 -57 27 -11 29
-15 29 -63 0 -42 4 -54 22 -66 l22 -15 -22 -35 c-24 -39 -28 -73 -11 -84 8 -4
9 -22 4 -53 -4 -25 -7 -61 -7 -78 1 -38 1 -38 -38 -18 -26 13 -28 19 -23 52 3
21 12 45 19 54 20 22 18 29 -18 68 -18 20 -29 33 -24 29 10 -9 46 34 46 55 0
8 -7 17 -15 21 -9 3 -15 18 -15 40 0 25 -9 45 -29 68 -16 19 -31 44 -33 57 -2
20 -12 30 -47 48 -1 1 0 6 4 12 3 6 26 11 49 11 l44 0 7 -46z m-1335 -94 c40
-21 60 -40 39 -40 -16 0 -89 42 -89 52 0 12 6 10 50 -12z m64 -109 c39 -40 29
-61 -12 -26 -30 25 -43 55 -24 55 5 0 21 -13 36 -29z m2126 -94 c0 -15 -34
-49 -66 -65 -30 -16 -257 -60 -393 -77 -144 -19 -181 -31 -181 -62 0 -30 -9
-29 -50 5 -21 18 -31 34 -28 44 6 15 49 28 96 28 14 0 53 6 86 14 34 8 122 27
196 41 74 15 173 39 220 55 97 32 120 35 120 17z m-1800 -77 c0 -5 -9 -10 -20
-10 -11 0 -20 5 -20 10 0 6 9 10 20 10 11 0 20 -4 20 -10z m242 -167 c12 -20
30 -47 38 -59 13 -21 13 -25 -10 -49 -28 -30 -59 -49 -67 -42 -2 3 4 28 13 56
18 50 18 50 -4 74 -14 15 -20 30 -16 40 9 25 20 21 46 -20z m700 -48 c10 -52
-93 -101 -238 -112 -65 -5 -85 -3 -106 11 -14 9 -30 16 -34 15 -21 -6 -141 15
-157 26 -16 11 -13 14 31 20 29 4 67 2 93 -5 128 -35 214 -29 278 18 27 20 94
48 122 51 4 1 9 -10 11 -24z m-802 -159 c0 -20 -62 -58 -75 -45 -7 7 -1 18 18
35 31 27 57 31 57 10z m1814 -66 c6 -6 18 -10 28 -10 19 0 98 -71 98 -88 0 -7
-8 -13 -17 -13 -84 -7 -116 -4 -166 12 -31 10 -65 19 -75 19 -9 0 -33 10 -52
22 -19 11 -48 24 -65 28 -29 6 -28 7 25 22 30 9 66 19 80 21 35 7 133 -2 144
-13z"/>
</g>
</svg>
