<?xml version="1.0" standalone="no"?>
<!DOCTYPE svg PUBLIC "-//W3C//DTD SVG 20010904//EN"
 "http://www.w3.org/TR/2001/REC-SVG-20010904/DTD/svg10.dtd">
<svg version="1.0" xmlns="http://www.w3.org/2000/svg"
 width="1000.000000pt" height="1000.000000pt" viewBox="0 0 1000.000000 1000.000000"
 preserveAspectRatio="xMidYMid meet">

<g transform="translate(0.000000,1000.000000) scale(0.100000,-0.100000)"
fill="#000000" stroke="none">
<path d="M2617 9618 c-18 -174 -28 -267 -42 -378 -8 -69 -19 -172 -25 -230
-31 -308 -40 -390 -45 -412 -3 -13 -12 -93 -20 -178 -19 -204 -41 -405 -54
-510 -6 -47 -15 -132 -21 -190 -25 -247 -30 -301 -45 -415 -8 -66 -19 -169
-25 -230 -19 -192 -38 -367 -49 -455 -6 -47 -15 -132 -21 -190 -32 -317 -40
-391 -45 -412 -3 -13 -12 -93 -20 -178 -19 -204 -41 -405 -54 -510 -6 -47 -15
-132 -21 -190 -22 -221 -30 -299 -45 -420 -8 -69 -19 -170 -25 -225 -6 -55
-17 -165 -25 -245 -8 -80 -19 -172 -25 -205 -5 -33 -10 -82 -10 -109 l0 -49
203 7 c111 4 231 9 267 11 36 2 130 6 210 10 80 3 188 8 240 10 52 3 516 26
1030 51 934 45 934 45 990 71 212 97 1400 613 1411 613 12 0 11 -36 -8 -237
-13 -131 -27 -291 -33 -356 -18 -224 -60 -672 -70 -757 -5 -47 -14 -148 -20
-225 -6 -77 -17 -201 -25 -275 -23 -215 -36 -356 -46 -490 -5 -69 -14 -165
-19 -215 -6 -49 -15 -144 -20 -210 -5 -66 -14 -160 -19 -210 -6 -49 -15 -151
-21 -225 -6 -74 -18 -201 -27 -283 -10 -90 -13 -151 -7 -156 5 -4 207 0 449
10 242 10 620 25 840 34 1325 52 1363 54 1369 63 2 4 7 108 10 232 4 124 9
259 11 300 13 219 25 487 30 660 3 107 12 337 20 510 14 303 41 931 50 1190 5
127 17 423 35 830 6 124 12 293 15 375 3 83 8 191 11 242 5 90 5 92 -18 97
-13 3 -214 31 -448 61 -234 31 -540 72 -680 90 -140 19 -394 52 -565 75 -170
22 -393 52 -495 66 -132 19 -185 23 -188 15 -7 -20 -141 -81 -1027 -466 -110
-48 -255 -111 -323 -141 -67 -30 -128 -54 -134 -54 -12 0 -5 307 12 465 11
101 25 320 40 625 6 113 15 257 20 320 5 63 17 230 25 370 31 521 35 590 50
800 8 118 21 334 30 480 8 146 23 398 34 560 26 387 29 460 21 465 -7 4 -123
21 -1325 196 -1123 163 -1238 179 -1261 179 -19 0 -22 -7 -27 -52z m3843
-3915 c0 -21 -5 -78 -11 -128 -6 -49 -12 -117 -14 -150 -12 -169 -37 -435 -46
-478 -5 -27 -9 -78 -9 -113 0 -60 -2 -64 -28 -78 -16 -8 -262 -117 -548 -241
-285 -125 -625 -273 -754 -330 -253 -110 -257 -111 -465 -120 -71 -3 -585 -28
-1142 -55 -557 -28 -1025 -50 -1040 -50 l-28 1 27 14 c24 14 292 131 648 285
74 32 585 255 1135 495 1904 834 2250 984 2263 985 7 0 12 -14 12 -37z"/>
</g>
</svg>
