<?xml version="1.0" standalone="yes"?>
<svg xmlns="http://www.w3.org/2000/svg" width="1000" height="1000">
<path style="fill:#010101; stroke:none;" d="M0 0L0 1000L664 1000C656.383 986.332 643.945 975.945 633 965C615.667 947.667 598.392 930.274 581 913.001C570.722 902.793 560.22 896.537 553.259 883C533.778 845.115 532.993 798.775 542.654 758C546.339 742.449 554.005 728.226 558.562 713C566.074 687.896 569 663.064 569 637C539.522 650.763 525.56 677.43 503.739 699.74C485.093 718.805 461.376 733.092 443.269 752.514C429.321 767.473 418.018 785.141 403.739 799.74C386.832 817.026 367.195 831.963 348.614 847.377C325.71 866.377 301.674 883.461 271.91 888.741C251.695 892.327 232.155 885.116 219.639 868.919C214.695 862.521 213.093 854.011 207.867 848C190.286 827.78 169.569 806.82 149.285 789.314C145.825 786.328 141.233 786.403 137.285 784.359C129.328 780.239 122.108 773.037 117.239 765.572C107.82 751.13 107.129 733.608 105.946 717.039C103.587 684.01 105.514 652.047 106.961 619C108.752 578.082 115.945 537.374 121.886 496.91C128.192 453.957 132.696 410.854 137.871 367.911C142.575 328.879 141.594 286.192 138.91 247C137.992 233.586 134.037 220.446 134 207L169 207C168.509 203.112 169.227 195.691 166.972 192.513C164.141 188.523 154.428 188.123 150 188.015C129.455 187.51 120.02 199.074 103 207C97.1984 194.559 81.6742 183.674 72 174C50.0222 152.022 28.3851 123.882 3 106C12.1398 94.3567 18.4876 81.6305 34 76.8387C41.7041 74.4589 52.0454 78.787 59 74.3966C70.5058 67.1329 80.3836 53.6165 90 44C94.0209 39.9791 100.379 35.4719 102.397 30C105.746 20.9155 102.944 9.69598 106 0L0 0z"/>
<path style="fill:#413f3f; stroke:none;" d="M3 106L69 172L103 207C108.822 205.367 112.899 200.238 118 197.066C128.102 190.782 140.04 186.975 152 188.171C156.291 188.6 164.442 189.257 166.972 193.279C169.118 196.69 168.26 203.014 169 207L134 207C134.009 220.81 137.968 234.237 138.91 248C141.555 286.62 142.388 328.488 137.871 366.961C132.827 409.924 128.033 452.985 121.886 495.961C116.095 536.45 108.753 577.073 106.961 618C105.509 651.143 101.982 683.918 105.871 717.039C107.838 733.788 107.384 750.6 116.689 765.572C121.386 773.129 128.533 780.194 136.425 784.359C140.341 786.425 145.005 786.318 148.424 789.314C168.934 807.287 189.969 828.422 207.867 849C213.073 854.986 214.701 863.4 219.639 869.75C232.311 886.047 252.639 892.428 272.83 888.741C313.47 881.319 343.643 852.244 374.275 826.514C384.47 817.949 395.302 809.354 404.551 799.74C418.962 784.76 430.245 766.678 444.731 751.746C463.037 732.878 486.246 718.767 504.551 699.74C517.641 686.134 527.719 669.465 541.17 656.174C549.18 648.258 559.696 643.137 569 637C569 662.699 565.966 687.256 558.562 712C554.005 727.226 546.339 741.449 542.654 757C534.927 789.612 533.967 825.732 543.291 858C547.3 871.875 552.698 885.504 561.735 896.911C567.429 904.099 575.538 908.541 582 915L637 970C643.252 976.252 649.948 982.28 655.7 989C658.503 992.276 660.911 997.72 665.093 999.397C675.95 1003.75 695.293 1000 707 1000C741.302 1000 775.985 1001.86 810 997.13C830.075 994.338 850.102 990.851 870 987C875.156 986.002 887.704 986.071 890.972 981.486C894.299 976.82 892 964.578 892 959L892 899L952 890.25L992 882C985.272 858.636 976.029 838.086 976.029 813C976.029 768.389 991.922 724.866 989.961 680C989.06 659.394 983.298 640.09 975.797 621C969.412 604.75 962.481 589.261 952.29 575C948.629 569.878 944.782 563.253 939 560.313C926.911 554.169 911.766 552.863 898.83 549.089C894.895 547.94 888.775 548.278 885.649 545.401C880.274 540.453 878.444 527.737 875.797 521C868.213 501.699 858.52 474.139 840.985 461.514C834.816 457.072 826.24 456.632 819.17 454.583C796.391 447.984 773.199 443.929 750.089 438.78C718.632 431.771 686.92 426.446 655.039 421.886C636.138 419.182 615.121 415.007 596.089 419.843C543.514 433.202 510.725 477.176 473 512C473 411.99 505.097 315.188 491.13 215C488.336 194.953 482.385 176.137 476 157C472.335 146.015 468.323 132.92 460.532 124.093C445.444 106.998 409.102 96.7592 387 95C386.111 84.1126 381.432 73.2963 378 63C373.647 49.9409 369.535 33.3254 359.699 23.1844C338.996 1.83929 306.368 0 279 0L195 0L133 0C125.915 0 113.787 -2.3468 107.299 0.599548C99.4666 4.15668 103.872 20.4409 102.852 27C102.062 32.0755 97.4319 35.5666 94 39C83.266 49.7388 70.5896 68.1774 57 74.9722C50.327 78.3087 41.1628 74.7716 34 76.554C18.8645 80.3204 10.3456 93.6403 3 106z"/>
<path style="fill:#010101; stroke:none;" d="M312 0L312 1C327.475 4.46027 347.368 11.8872 358.826 23.1844C374.133 38.2756 384.182 74.0868 387 95C409.638 97.9235 443.693 106.831 459.699 124.093C467.773 132.801 471.965 145.936 475.667 157C482.536 177.532 488.403 197.542 491.579 219C506.116 317.215 473 413.792 473 512C482.47 506.034 491.114 493.485 499.2 485.4C518.592 466.009 540.335 445.133 565.089 432.691C602.801 413.736 639.954 417.393 680.17 425.755C710.064 431.972 740.289 436.354 770.089 443.041C786.549 446.734 802.848 450.585 819.17 454.83C825.97 456.599 834.1 457.319 839.996 461.514C858.05 474.358 868.023 502.216 875.797 522C878.385 528.587 880.067 540.299 884.995 545.401C887.833 548.339 894.155 548.024 897.911 549.089C910.745 552.726 927.49 553.865 939 560.857C945.256 564.657 949.576 572.146 953.706 578C965.833 595.189 973.784 615.207 980.656 635C1001.27 694.369 977.197 751.925 976.015 812C975.533 836.539 982.723 859.688 992 882L949 890.611L892 899L892 958C892 963.946 894.218 975.57 890.972 980.721C887.43 986.343 872.045 986.485 866 987.576C841.638 991.97 815.822 998.794 791 999L791 1000L1000 1000L1000 0L312 0z"/>
</svg>
