<?xml version="1.0" standalone="no"?>
<!DOCTYPE svg PUBLIC "-//W3C//DTD SVG 20010904//EN"
 "http://www.w3.org/TR/2001/REC-SVG-20010904/DTD/svg10.dtd">
<svg version="1.0" xmlns="http://www.w3.org/2000/svg"
 width="1000.000000pt" height="4000.000000pt" viewBox="0 0 1000.000000 4000.000000"
 preserveAspectRatio="xMidYMid meet">

<g transform="translate(0.000000,4000.000000) scale(0.100000,-0.100000)"
fill="#000000" stroke="none">
<path d="M4769 38359 c-596 -29 -1192 -184 -1734 -449 -215 -105 -313 -162
-500 -286 -333 -221 -435 -303 -696 -564 -671 -670 -1083 -1467 -1256 -2430
l-28 -155 0 -14475 0 -14475 28 -155 c173 -963 585 -1760 1256 -2430 261 -261
363 -343 696 -564 187 -124 285 -181 500 -286 1239 -607 2691 -607 3930 0 215
105 313 162 500 286 333 221 435 303 696 564 671 670 1083 1467 1256 2430 l28
155 0 14475 0 14475 -28 155 c-173 963 -585 1760 -1256 2430 -261 261 -363
343 -696 564 -187 124 -285 181 -500 286 -555 272 -1130 418 -1765 450 -211
11 -203 11 -431 -1z m389 -1759 c417 -29 796 -138 1144 -331 157 -87 428 -273
525 -361 454 -409 768 -989 858 -1583 13 -89 15 -1728 15 -14325 0 -12597 -2
-14236 -15 -14325 -90 -594 -404 -1174 -858 -1583 -97 -88 -368 -274 -525
-361 -516 -286 -1118 -393 -1710 -305 -292 43 -628 158 -894 305 -157 87 -428
273 -525 361 -454 409 -768 989 -858 1583 -13 89 -15 1728 -15 14325 0 12597
2 14236 15 14325 90 594 404 1174 858 1583 97 88 368 274 525 361 340 188 735
304 1127 331 162 11 177 11 333 0z"/>
<path d="M4870 36069 c-424 -38 -741 -148 -1095 -379 -174 -113 -240 -166
-350 -281 -284 -299 -481 -672 -567 -1074 l-23 -110 0 -14225 0 -14225 23
-110 c86 -402 283 -775 567 -1074 110 -115 176 -168 350 -281 361 -235 676
-343 1113 -380 234 -20 588 33 840 126 213 78 525 254 699 395 136 110 319
324 430 502 124 202 234 476 285 712 l23 110 0 14225 0 14225 -23 110 c-86
402 -283 775 -567 1073 -106 112 -185 175 -349 282 -213 138 -408 231 -616
293 -221 67 -544 104 -740 86z m322 -2050 c133 -20 321 -70 438 -118 425 -173
782 -530 960 -960 34 -83 91 -288 111 -401 21 -113 21 -25319 0 -25430 -41
-223 -95 -384 -187 -559 -91 -172 -199 -316 -336 -446 -270 -259 -578 -410
-969 -474 -97 -16 -408 -14 -506 4 -295 52 -477 125 -715 284 -213 143 -352
285 -497 506 -122 187 -218 436 -262 685 -12 63 -14 2135 -14 12725 0 12143 1
12653 18 12730 72 319 134 470 286 697 194 290 489 524 824 657 77 30 283 84
382 99 86 13 382 14 467 1z"/>
<path d="M4775 33469 c-22 -5 -62 -14 -90 -20 -98 -21 -242 -79 -340 -136
-112 -66 -294 -235 -367 -340 -127 -186 -194 -372 -223 -623 -22 -192 -22
-24863 0 -25050 23 -194 48 -290 114 -435 85 -186 292 -421 459 -518 203 -119
364 -167 587 -175 178 -6 279 7 423 54 347 113 616 366 752 708 46 114 71 221
89 382 15 129 15 24889 0 25018 -28 245 -89 426 -202 599 -65 100 -202 247
-296 317 -108 81 -305 171 -436 199 -27 6 -71 15 -97 21 -57 12 -317 12 -373
-1z"/>
</g>
</svg>
