<?xml version="1.0" standalone="no"?>
<!DOCTYPE svg PUBLIC "-//W3C//DTD SVG 20010904//EN"
 "http://www.w3.org/TR/2001/REC-SVG-20010904/DTD/svg10.dtd">
<svg version="1.0" xmlns="http://www.w3.org/2000/svg"
 width="1000.000000pt" height="1000.000000pt" viewBox="0 0 1000.000000 1000.000000"
 preserveAspectRatio="xMidYMid meet">

<g transform="translate(0.000000,1000.000000) scale(0.100000,-0.100000)"
fill="#000000" stroke="none">
<path d="M1597 9246 c-4 -11 -36 -15 -139 -18 -131 -3 -134 -3 -181 -35 -26
-18 -51 -33 -55 -33 -10 0 -112 -103 -112 -113 0 -5 -11 -23 -25 -41 -41 -54
-28 -59 31 -11 189 154 438 175 633 54 26 -16 56 -33 69 -39 12 -5 22 -14 22
-20 0 -5 5 -10 12 -10 12 0 138 -126 138 -138 1 -4 14 -23 30 -42 17 -19 30
-40 30 -46 0 -7 3 -14 8 -16 15 -7 112 -197 112 -222 0 -9 4 -16 8 -16 5 0 15
-19 21 -42 7 -24 17 -47 21 -53 4 -5 13 -30 20 -55 6 -25 17 -58 25 -75 7 -16
16 -50 20 -75 4 -25 11 -49 15 -55 4 -5 13 -41 19 -79 7 -38 16 -77 21 -87 5
-9 14 -70 20 -135 6 -66 15 -128 20 -139 14 -31 30 -351 30 -592 0 -269 -20
-826 -29 -833 -4 -3 -13 -95 -20 -205 -8 -110 -17 -204 -21 -210 -4 -5 -13
-73 -20 -150 -7 -77 -16 -146 -21 -155 -4 -8 -13 -77 -20 -152 -7 -76 -15
-138 -19 -138 -4 0 -13 -63 -20 -140 -7 -77 -16 -140 -20 -140 -4 0 -13 -63
-20 -140 -7 -77 -16 -140 -20 -140 -4 0 -13 -66 -20 -147 -7 -82 -16 -152 -20
-158 -4 -5 -13 -77 -19 -160 -7 -82 -16 -159 -21 -170 -10 -23 -30 -331 -30
-464 0 -50 -4 -93 -10 -96 -14 -8 -14 -632 0 -640 6 -3 10 -31 10 -61 0 -70
20 -247 29 -254 4 -3 13 -30 19 -60 23 -98 59 -159 147 -247 62 -61 94 -85
126 -94 24 -7 47 -18 51 -24 10 -14 318 -13 349 2 13 6 52 17 87 23 34 7 62
17 62 21 0 5 7 9 16 9 39 0 185 84 306 174 26 20 52 36 57 36 6 0 15 9 21 20
6 11 16 20 21 20 11 0 134 99 179 145 14 14 30 25 34 25 5 0 48 36 97 80 48
44 90 80 93 80 2 0 27 22 54 50 27 27 53 50 57 50 15 0 183 164 250 245 39 45
102 121 141 167 38 45 108 130 155 188 257 319 763 819 1014 1001 185 135 290
192 411 223 80 21 213 21 261 1 53 -22 178 -118 247 -189 117 -121 259 -365
295 -508 27 -106 45 -308 44 -508 0 -167 -2 -184 -42 -370 -42 -196 -55 -236
-151 -495 -57 -153 -95 -304 -111 -448 -16 -128 -23 -387 -11 -387 5 0 12 -53
15 -117 4 -97 12 -138 41 -230 77 -245 113 -318 213 -422 l78 -81 96 0 c213 0
738 34 1019 66 278 31 1028 154 1060 174 6 4 -3 35 -24 82 -76 164 -120 388
-119 613 0 140 30 402 69 608 30 162 51 364 59 582 10 254 -13 389 -110 648
-106 284 -163 398 -266 539 -85 115 -107 137 -148 144 -20 4 -40 10 -46 14 -5
5 -39 14 -75 20 -36 7 -69 16 -75 20 -5 4 -41 13 -80 20 -38 7 -74 16 -80 20
-5 4 -41 13 -80 20 -38 7 -74 16 -80 20 -5 4 -49 14 -97 21 -49 7 -88 16 -88
19 0 4 -45 13 -100 20 -55 7 -100 16 -100 20 0 3 -42 12 -92 19 -51 7 -97 16
-103 21 -5 4 -50 13 -100 20 -49 7 -94 16 -100 20 -5 4 -56 13 -112 20 -57 7
-103 16 -103 20 0 4 -55 13 -122 20 -68 7 -128 16 -133 21 -6 4 -84 13 -175
19 -91 6 -173 16 -182 21 -22 11 -171 12 -183 1 -6 -5 -41 -14 -80 -21 -38 -7
-74 -16 -80 -20 -5 -4 -28 -13 -50 -20 -62 -20 -205 -93 -254 -128 -24 -18
-48 -33 -53 -33 -5 0 -35 -20 -67 -45 -31 -25 -62 -45 -67 -45 -5 0 -17 -8
-27 -17 -9 -10 -58 -52 -108 -93 -94 -77 -483 -456 -490 -477 -9 -26 -421
-442 -543 -547 l-131 -114 -31 62 c-64 125 -174 395 -209 516 -86 291 -117
499 -135 904 -13 277 -7 400 36 721 13 105 27 242 30 305 3 63 9 124 14 135 5
11 14 94 20 185 7 91 16 170 20 175 4 6 13 78 20 160 7 83 16 155 20 160 4 6
13 89 19 185 7 96 16 184 21 195 4 11 13 92 19 180 8 136 7 194 -9 385 -31
373 -65 544 -164 835 -65 194 -124 333 -161 381 -53 70 -296 201 -406 219 -24
4 -48 11 -54 15 -5 5 -39 14 -75 20 -36 7 -69 16 -75 20 -5 4 -41 13 -80 20
-38 7 -74 16 -80 20 -5 4 -53 13 -105 20 -52 7 -99 16 -105 20 -5 4 -49 13
-97 20 -49 7 -88 15 -88 20 0 4 -48 13 -107 20 -60 7 -112 16 -118 20 -5 4
-65 14 -132 21 -68 7 -123 16 -123 20 0 3 -65 12 -145 19 -80 8 -148 17 -151
22 -9 14 -71 9 -77 -6z"/>
</g>
</svg>
