<?xml version="1.0" standalone="no"?>
<!DOCTYPE svg PUBLIC "-//W3C//DTD SVG 20010904//EN"
 "http://www.w3.org/TR/2001/REC-SVG-20010904/DTD/svg10.dtd">
<svg version="1.0" xmlns="http://www.w3.org/2000/svg"
 width="4000.000000pt" height="1000.000000pt" viewBox="0 0 4000.000000 1000.000000"
 preserveAspectRatio="xMidYMid meet">

<g transform="translate(0.000000,1000.000000) scale(0.100000,-0.100000)"
fill="#000000" stroke="none">
<path d="M5545 9443 c-1018 -139 -1895 -570 -2605 -1282 -261 -261 -343 -363
-564 -696 -124 -187 -181 -285 -286 -500 -607 -1239 -607 -2691 0 -3930 105
-215 162 -313 286 -500 221 -333 303 -435 564 -696 670 -671 1467 -1083 2430
-1256 l155 -28 14475 0 14475 0 155 28 c963 173 1760 585 2430 1256 261 261
343 363 564 696 124 187 181 285 286 500 607 1239 607 2691 0 3930 -105 215
-162 313 -286 500 -221 333 -303 435 -564 696 -665 666 -1441 1071 -2405 1252
l-170 32 -14455 1 c-7950 1 -14468 -1 -14485 -3z m28780 -1758 c594 -90 1174
-404 1583 -858 88 -97 274 -368 361 -525 286 -516 393 -1118 305 -1710 -43
-292 -158 -628 -305 -894 -87 -157 -273 -428 -361 -525 -409 -454 -989 -768
-1583 -858 -89 -13 -1728 -15 -14325 -15 -12597 0 -14236 2 -14325 15 -594 90
-1174 404 -1583 858 -88 97 -274 368 -361 525 -286 516 -393 1118 -305 1710
43 292 158 628 305 894 87 157 273 428 361 525 406 451 984 765 1575 857 74
12 2349 14 14323 15 12609 1 14246 -1 14335 -14z"/>
<path d="M5795 7163 c-266 -35 -599 -156 -842 -306 -178 -111 -392 -294 -502
-430 -141 -174 -317 -486 -395 -699 -93 -252 -146 -606 -126 -840 37 -437 145
-752 380 -1113 113 -174 166 -240 281 -350 299 -284 672 -481 1074 -567 l110
-23 14225 0 14225 0 110 23 c236 51 510 161 712 285 178 111 392 294 502 430
141 174 317 486 395 699 93 252 146 606 126 841 -37 436 -145 751 -380 1112
-113 174 -166 240 -281 350 -294 279 -643 466 -1052 563 l-112 27 -14210 1
c-7816 0 -14223 -1 -14240 -3z m26775 -396 c240 -58 323 -84 457 -148 341
-163 649 -463 817 -797 68 -135 100 -222 134 -362 43 -178 52 -250 52 -425 0
-175 -9 -247 -52 -425 -129 -533 -522 -987 -1037 -1200 -83 -34 -288 -91 -401
-111 -113 -21 -25319 -21 -25430 0 -223 41 -384 95 -559 187 -172 91 -316 199
-446 336 -259 270 -410 578 -474 969 -16 97 -14 408 4 506 52 295 125 477 284
715 187 278 424 479 731 619 199 90 382 137 585 149 66 3 5776 6 12690 6
12061 -1 12573 -2 12645 -19z"/>
<path d="M7290 6245 c-240 -29 -398 -84 -578 -200 -120 -78 -300 -262 -365
-373 -119 -203 -167 -364 -175 -587 -6 -178 7 -279 54 -423 113 -347 366 -616
708 -752 114 -46 221 -71 382 -89 129 -15 24889 -15 25018 0 245 28 426 89
599 202 100 65 247 202 317 296 81 108 171 305 199 436 6 28 15 71 21 97 13
61 13 305 0 366 -6 26 -15 70 -21 97 -21 97 -79 242 -136 340 -66 112 -235
294 -340 367 -123 84 -280 155 -415 188 -215 53 649 50 -12748 48 -9977 0
-12436 -3 -12520 -13z"/>
</g>
</svg>
