<?xml version="1.0" standalone="no"?>
<!DOCTYPE svg PUBLIC "-//W3C//DTD SVG 20010904//EN"
 "http://www.w3.org/TR/2001/REC-SVG-20010904/DTD/svg10.dtd">
<svg version="1.0" xmlns="http://www.w3.org/2000/svg"
 width="1000.000000pt" height="1000.000000pt" viewBox="0 0 1000.000000 1000.000000"
 preserveAspectRatio="xMidYMid meet">

<g transform="translate(0.000000,1000.000000) scale(0.100000,-0.100000)"
fill="#000000" stroke="none">
<path d="M3572 8829 c-86 -17 -169 -92 -193 -177 -12 -39 -14 -423 -14 -2297
l0 -2250 22 -47 c31 -67 96 -134 151 -155 44 -17 101 -18 867 -18 818 0 820 0
867 22 63 29 123 93 145 156 17 50 18 156 18 2317 0 2206 0 2266 -19 2300 -35
64 -69 101 -120 131 l-51 29 -815 -1 c-448 -1 -834 -5 -858 -10z"/>
<path d="M5680 5460 l0 -821 119 238 c141 283 233 452 471 864 l177 308 -18
40 c-24 54 -102 131 -164 161 -49 24 -56 25 -317 28 l-268 3 0 -821z"/>
<path d="M6335 5398 c-224 -390 -550 -1056 -710 -1453 -38 -93 -142 -201 -237
-245 -121 -57 -154 -60 -705 -60 l-503 0 0 -1032 c1 -568 4 -1077 9 -1130 6
-79 14 -109 40 -162 39 -80 119 -156 199 -188 l57 -23 845 0 c835 0 846 0 896
21 116 47 183 116 227 232 l22 57 3 1825 c1 1004 1 1955 0 2113 l-3 289 -140
-244z"/>
</g>
</svg>
